:SAMPLES-PER-SECOND 30
:FULLY-SPECIFIED
:DEGREES
855
root  -47.2357 40.1492 -10.7683 -3.09174 -19.7088 2.85254
RightUpLeg  -2.59986 -18.9647 -17.1221
RightLeg  5.82787 -23.0121 3.18849
RightFoot  4.31177 -0.57896 4.42447
RightToes  2.21189e-009 0 -3.6325e-017
Spine  6.89845 -1.89705 2.3988
Spine1  7.51131 -1.28872 -2.2076
HEad  -3.51782 15.5225 -10.6262
LeftShoulder1  0.218983 2.92812 -31.9642
LeftArm  5.1878 12.6737 -39.3048
LeftForeArm  29.4733 -45.5496 -9.33099
LeftHand  -0.123381 0.244511 2.79836
RightShoulder  -0.598304 -5.22306 28.0511
RightArm  26.2256 -7.85853 38.5255
RightForeArm  -11.9836 21.4795 5.58173
RightHand  -0.760112 4.79529 -8.94333
LeftUpLeg  4.52603 18.6511 14.7834
LeftLeg  9.70088 28.0752 1.58553
LeftFoot  -3.47658 0.0816729 -0.841165
LeftToes  -3.01956e-010 3.07132e-011 1.04116e-011
856
root  -46.178 40.0209 -10.8687 -2.69189 -14.1423 2.81885
RightUpLeg  -0.95358 -20.0304 -19.6069
RightLeg  4.60125 -26.4522 3.5522
RightFoot  4.80307 -0.764821 5.61517
RightToes  2.21189e-009 0 -3.6325e-017
Spine  6.69772 -1.9288 1.32446
Spine1  7.21701 -1.59061 -1.58377
HEad  -3.85977 13.1827 -9.94283
LeftShoulder1  0.14648 3.12265 -32.2925
LeftArm  6.80611 11.6466 -39.81
LeftForeArm  28.3878 -46.6621 -9.82259
LeftHand  -0.112571 0.116024 2.5221
RightShoulder  -0.586992 -5.20092 27.8235
RightArm  25.2639 -8.81083 39.8402
RightForeArm  -11.4506 22.2082 5.50507
RightHand  -0.834394 4.38985 -10.154
LeftUpLeg  3.95786 19.8558 14.5661
LeftLeg  10.4002 34.3839 1.74321
LeftFoot  -2.29372 0.420242 -5.09018
LeftToes  -3.01956e-010 3.07132e-011 1.04116e-011
857
root  -45.0296 39.8943 -10.9837 -1.82715 -8.13149 3.35074
RightUpLeg  0.273006 -21.2039 -22.5911
RightLeg  3.85953 -29.0697 3.47919
RightFoot  4.46188 -1.06267 7.88372
RightToes  2.21189e-009 0 -3.6325e-017
Spine  6.19893 -1.87487 0.307829
Spine1  6.86851 -1.63697 -1.51377
HEad  -5.00697 10.7591 -8.43585
LeftShoulder1  0.208192 2.96219 -32.3424
LeftArm  9.32766 9.80407 -40.7589
LeftForeArm  26.4097 -45.9699 -9.70531
LeftHand  -0.135133 0.862957 3.38506
RightShoulder  -0.682901 -5.44618 28.4742
RightArm  23.5372 -9.71469 40.2716
RightForeArm  -9.56528 23.0319 5.43881
RightHand  -0.744577 4.61572 -8.90566
LeftUpLeg  1.31608 21.6546 12.5863
LeftLeg  11.0894 31.6336 0.724544
LeftFoot  -0.470747 0.661312 -7.00063
LeftToes  -3.01956e-010 3.07132e-011 1.04116e-011
858
root  -43.8444 39.7654 -11.0744 -1.63062 -2.32896 4.44894
RightUpLeg  1.92626 -21.9129 -25.9504
RightLeg  3.54494 -27.9371 2.55829
RightFoot  2.4366 -1.14607 9.60628
RightToes  2.21189e-009 0 -3.6325e-017
Spine  6.35732 -1.75937 -0.742416
Spine1  7.05528 -1.49768 -1.77672
HEad  -6.04915 8.28825 -7.80095
LeftShoulder1  0.0900583 3.2717 -32.7207
LeftArm  12.5711 6.44553 -41.4592
LeftForeArm  23.8286 -43.2575 -8.93006
LeftHand  -0.143678 0.29427 3.28546
RightShoulder  -0.69978 -5.47504 28.8192
RightArm  21.6519 -10.2869 40.9472
RightForeArm  -8.92785 23.628 5.49413
RightHand  -0.796176 4.71956 -9.41276
LeftUpLeg  -1.91159 24.4022 8.78997
LeftLeg  12.6567 22.8332 0.493815
LeftFoot  0.459581 0.476237 -4.57208
LeftToes  -3.01956e-010 3.07132e-011 1.04116e-011
859
root  -42.5737 39.6616 -11.1717 -1.06268 3.30659 5.29965
RightUpLeg  2.61796 -21.5729 -28.1097
RightLeg  3.5054 -20.1324 0.880752
RightFoot  -1.2189 -0.890297 9.94407
RightToes  2.21189e-009 0 -3.6325e-017
Spine  6.42893 -1.65992 -0.289364
Spine1  6.95482 -1.12402 -2.85103
HEad  -6.74979 5.54733 -7.51048
LeftShoulder1  0.0714609 3.32323 -33.3649
LeftArm  16.8303 2.27602 -42.4521
LeftForeArm  19.5658 -37.7558 -7.48466
LeftHand  -0.143139 1.11934 3.76899
RightShoulder  -0.654748 -5.35385 28.6877
RightArm  19.9288 -10.9208 41.8199
RightForeArm  -8.03154 23.6927 5.46799
RightHand  -0.787743 4.61696 -9.4125
LeftUpLeg  -6.16899 25.6158 3.30647
LeftLeg  15.9872 16.588 3.23419
LeftFoot  -1.07991 0.121681 -1.28451
LeftToes  -3.01956e-010 3.07132e-011 1.04116e-011
860
root  -41.3844 39.6206 -11.2792 -1.21307 8.17362 6.06152
RightUpLeg  2.87981 -19.7647 -28.7554
RightLeg  3.65855 -7.25559 -1.74646
RightFoot  -5.17889 -0.478515 8.00352
RightToes  2.21189e-009 0 -3.6325e-017
Spine  7.29635 -1.36445 0.822117
Spine1  7.01193 -0.290354 -5.09763
HEad  -6.96512 2.82329 -7.78903
LeftShoulder1  0.191972 3.01266 -33.0696
LeftArm  21.5525 -1.794 -44.8219
LeftForeArm  14.1348 -30.2249 -5.63399
LeftHand  -0.129915 1.43365 3.61371
RightShoulder  -0.744972 -5.57698 29.245
RightArm  20.2921 -10.2281 42.1308
RightForeArm  -8.56053 23.0918 5.38915
RightHand  -0.845952 5.5657 -9.24901
LeftUpLeg  -7.19289 20.4686 -0.440848
LeftLeg  17.0252 17.531 4.06668
LeftFoot  -2.39492 -0.0527422 0.841292
LeftToes  -3.01956e-010 3.07132e-011 1.04116e-011
861
root  -40.3003 39.6436 -11.3359 -1.52228 11.4877 6.53937
RightUpLeg  1.20975 -14.4248 -27.462
RightLeg  6.17254 3.84602 -3.92452
RightFoot  -7.14648 -0.164397 3.46809
RightToes  2.21189e-009 0 -3.6325e-017
Spine  8.09857 -0.727792 1.67694
Spine1  7.22089 0.814035 -6.96072
HEad  -7.13193 1.40521 -7.75092
LeftShoulder1  0.270621 2.80354 -32.76
LeftArm  22.6837 -5.28668 -46.9575
LeftForeArm  10.3157 -21.2159 -5.45387
LeftHand  -0.101259 2.7104 4.08902
RightShoulder  -0.815155 -5.73161 29.8917
RightArm  22.8172 -8.69632 42.0186
RightForeArm  -8.40385 22.8349 5.35906
RightHand  -0.747957 4.69566 -8.88186
LeftUpLeg  -6.28635 15.4877 -2.51212
LeftLeg  16.5501 20.0437 3.56172
LeftFoot  -3.62429 -0.0960793 1.74434
LeftToes  -3.01956e-010 3.07132e-011 1.04116e-011
862
root  -39.3819 39.6172 -11.3282 -1.45941 14.7228 6.54251
RightUpLeg  -1.19769 -5.28376 -26.0466
RightLeg  11.572 3.11401 -1.67678
RightFoot  -8.2141 -0.180877 4.56001
RightToes  2.21189e-009 0 -3.6325e-017
Spine  8.6005 -0.773088 0.795665
Spine1  7.04702 0.486702 -6.58231
HEad  -7.00392 2.52454 -8.18243
LeftShoulder1  0.0376674 3.41134 -33.8608
LeftArm  7.36415 -7.60654 -46.4329
LeftForeArm  20.0043 -11.3326 -9.85774
LeftHand  -0.0662952 4.5026 5.81447
RightShoulder  -0.537474 -5.02788 28.5059
RightArm  25.0893 -7.09807 43.6276
RightForeArm  -7.77187 22.3458 5.34323
RightHand  -0.759332 4.5849 -9.11352
LeftUpLeg  -5.95949 11.9767 -3.73938
LeftLeg  16.6085 20.5699 2.71444
LeftFoot  -4.97791 -0.100237 2.34392
LeftToes  -3.01956e-010 3.07132e-011 1.04116e-011
863
root  -38.5329 39.6666 -11.28 -0.967041 18.9477 5.99649
RightUpLeg  -3.88027 -1.5385 -23.6596
RightLeg  17.0756 1.07048 0.390041
RightFoot  -7.87745 -0.172038 3.9135
RightToes  2.21189e-009 0 -3.6325e-017
Spine  8.46722 -1.27357 0.042518
Spine1  7.12252 -0.365027 -5.6754
HEad  -7.52959 3.08113 -7.619
LeftShoulder1  0.152092 3.11441 -33.0597
LeftArm  -3.7386 -8.17541 -46.5973
LeftForeArm  24.3022 -3.7915 -9.4509
LeftHand  -0.0336058 5.14704 5.35912
RightShoulder  -0.531931 -5.025 28.1579
RightArm  24.9025 -5.14277 45.3152
RightForeArm  -6.57101 21.5483 5.30769
RightHand  -0.827131 4.29041 -10.1774
LeftUpLeg  -5.70607 8.71713 -4.60886
LeftLeg  15.5633 19.7465 1.68966
LeftFoot  -5.8978 -0.10476 2.94392
LeftToes  -3.01956e-010 3.07132e-011 1.04116e-011
864
root  -37.718 39.7381 -11.2069 -0.559692 23.6612 5.44824
RightUpLeg  -6.57626 -3.789 -20.319
RightLeg  22.0586 1.12422 0.278448
RightFoot  -8.04017 -0.176011 4.20896
RightToes  2.21189e-009 0 -3.6325e-017
Spine  8.66719 -1.8514 -1.14951
Spine1  6.97265 -1.52984 -3.80985
HEad  -9.11053 3.45003 -6.45438
LeftShoulder1  0.339341 2.61771 -32.1797
LeftArm  -5.31465 -8.05398 -46.5694
LeftForeArm  20.6971 -0.249447 -7.78989
LeftHand  0.0154661 6.37149 5.14911
RightShoulder  -0.52517 -5.02014 27.8142
RightArm  21.892 -4.91213 45.9057
RightForeArm  -4.81363 23.2463 5.25611
RightHand  -0.864557 5.17742 -9.77063
LeftUpLeg  -5.06033 6.37108 -5.53193
LeftLeg  14.0978 17.4775 0.805162
LeftFoot  -6.76265 -0.0815076 3.05133
LeftToes  -3.01956e-010 3.07132e-011 1.04116e-011
